<?xml version="1.0" encoding="UTF-8" standalone="no"?>
<svg
   xmlns:dc="http://purl.org/dc/elements/1.1/"
   xmlns:cc="http://creativecommons.org/ns#"
   xmlns:rdf="http://www.w3.org/1999/02/22-rdf-syntax-ns#"
   xmlns:svg="http://www.w3.org/2000/svg"
   xmlns="http://www.w3.org/2000/svg"
   xmlns:sodipodi="http://sodipodi.sourceforge.net/DTD/sodipodi-0.dtd"
   xmlns:inkscape="http://www.inkscape.org/namespaces/inkscape"
   height="86.000084"
   width="86.000046"
   version="1.1"
   x="0px"
   y="0px"
   viewBox="0 0 86.000046 86.000084"
   id="svg6"
   sodipodi:docname="home-button.svg"
   style="fill:#000000"
   inkscape:version="0.92.5 (2060ec1f9f, 2020-04-08)">
  <metadata
     id="metadata12">
    <rdf:RDF>
      <cc:Work
         rdf:about="">
        <dc:format>image/svg+xml</dc:format>
        <dc:type
           rdf:resource="http://purl.org/dc/dcmitype/StillImage" />
        <dc:title></dc:title>
      </cc:Work>
    </rdf:RDF>
  </metadata>
  <defs
     id="defs10" />
  <sodipodi:namedview
     pagecolor="#ffffff"
     bordercolor="#666666"
     borderopacity="1"
     objecttolerance="10"
     gridtolerance="10"
     guidetolerance="10"
     inkscape:pageopacity="0"
     inkscape:pageshadow="2"
     inkscape:window-width="2160"
     inkscape:window-height="1372"
     id="namedview8"
     showgrid="false"
     fit-margin-top="0"
     fit-margin-left="0"
     fit-margin-right="0"
     fit-margin-bottom="0"
     inkscape:zoom="2.36"
     inkscape:cx="43.000021"
     inkscape:cy="43.00002"
     inkscape:window-x="0"
     inkscape:window-y="0"
     inkscape:window-maximized="1"
     inkscape:current-layer="svg6" />
  <g
     transform="translate(-6.9999787,-959.36212)"
     id="g4"
     style="fill:#ff00ff;fill-opacity:1">
    <path
       style="color:#000000;text-indent:0;text-transform:none;direction:ltr;baseline-shift:baseline;display:inline;overflow:visible;visibility:visible;fill:#ff00ff;fill-opacity:1;stroke:none;enable-background:accumulate"
       d="M 48.187516,959.95458 8.1875164,989.95502 c -0.7389,0.56027 -1.1923,1.47898 -1.1875,2.40628 v 50.0008 c 2e-4,1.5708 1.4292,2.9999 2.9999996,3.0001 h 27 c 1.5708,-2e-4 2.9998,-1.4293 3,-3.0001 v -20.9999 c 0,-5.592 4.4081,-10.0002 10,-10.0002 5.5919,0 10,4.4082 10,10.0002 v 20.9999 c 2e-4,1.5708 1.4292,2.9999 3,3.0001 h 27.000005 c 1.5708,-2e-4 2.9998,-1.4293 3,-3.0001 v -50.0008 c 0,-0.9273 -0.4486,-1.84601 -1.1875,-2.40629 L 51.812516,959.95458 c -1.3099,-0.83182 -2.4021,-0.74694 -3.625,0 z m 1.8125,6.15634 37,27.7504 v 45.50078 h -21 v -17.9999 c 0,-8.8123 -7.1879,-16.0002 -16,-16.0002 -8.8121,0 -16,7.1879 -16,16.0002 v 17.9999 h -21 v -45.50078 z"
       marker="none"
       visibility="visible"
       display="inline"
       overflow="visible"
       id="path2"
       inkscape:connector-curvature="0" />
  </g>
</svg>
