<?xml version="1.0" encoding="UTF-8" standalone="no"?>
<!-- Created with Inkscape (http://www.inkscape.org/) -->

<svg
   xmlns:dc="http://purl.org/dc/elements/1.1/"
   xmlns:cc="http://creativecommons.org/ns#"
   xmlns:rdf="http://www.w3.org/1999/02/22-rdf-syntax-ns#"
   xmlns:svg="http://www.w3.org/2000/svg"
   xmlns="http://www.w3.org/2000/svg"
   xmlns:xlink="http://www.w3.org/1999/xlink"
   xmlns:sodipodi="http://sodipodi.sourceforge.net/DTD/sodipodi-0.dtd"
   xmlns:inkscape="http://www.inkscape.org/namespaces/inkscape"
   width="23.8125mm"
   height="16.7005mm"
   viewBox="0 0 23.8125 16.7005"
   version="1.1"
   id="svg4109"
   inkscape:version="0.92.5 (2060ec1f9f, 2020-04-08)"
   sodipodi:docname="Zeichnung-pi-2.svg">
  <defs
     id="defs4103">
    <linearGradient
       inkscape:collect="always"
       id="linearGradient844">
      <stop
         style="stop-color:#a900ff;stop-opacity:1"
         offset="0"
         id="stop840" />
      <stop
         style="stop-color:#000000;stop-opacity:0;"
         offset="1"
         id="stop842" />
    </linearGradient>
    <linearGradient
       inkscape:collect="always"
       id="linearGradient836">
      <stop
         style="stop-color:#ff00ff;stop-opacity:1;"
         offset="0"
         id="stop832" />
      <stop
         style="stop-color:#ff00ff;stop-opacity:0;"
         offset="1"
         id="stop834" />
    </linearGradient>
    <linearGradient
       inkscape:collect="always"
       xlink:href="#linearGradient836"
       id="linearGradient838"
       x1="31.819805"
       y1="-19.95821"
       x2="29.895922"
       y2="72.975822"
       gradientUnits="userSpaceOnUse" />
    <linearGradient
       inkscape:collect="always"
       xlink:href="#linearGradient844"
       id="linearGradient846"
       x1="31.567268"
       y1="-55.194118"
       x2="31.819805"
       y2="-19.95821"
       gradientUnits="userSpaceOnUse" />
  </defs>
  <sodipodi:namedview
     id="base"
     pagecolor="#ffffff"
     bordercolor="#666666"
     borderopacity="1.0"
     inkscape:pageopacity="0.0"
     inkscape:pageshadow="2"
     inkscape:zoom="7.9195959"
     inkscape:cx="15.243881"
     inkscape:cy="54.611759"
     inkscape:document-units="mm"
     inkscape:current-layer="layer1"
     showgrid="false"
     fit-margin-top="0"
     fit-margin-left="0"
     fit-margin-right="0"
     fit-margin-bottom="0"
     inkscape:window-width="2160"
     inkscape:window-height="1372"
     inkscape:window-x="0"
     inkscape:window-y="0"
     inkscape:window-maximized="1" />
  <metadata
     id="metadata4106">
    <rdf:RDF>
      <cc:Work
         rdf:about="">
        <dc:format>image/svg+xml</dc:format>
        <dc:type
           rdf:resource="http://purl.org/dc/dcmitype/StillImage" />
        <dc:title></dc:title>
      </cc:Work>
    </rdf:RDF>
  </metadata>
  <g
     inkscape:label="Ebene 1"
     inkscape:groupmode="layer"
     id="layer1"
     transform="translate(-93.927084,-114.02475)">
    <path
       style="stroke-width:0.99999994;stroke:url(#linearGradient838);fill-opacity:1;fill:url(#linearGradient846)"
       d="M 14.109375 0 C 13.019378 0 12.119141 0.89024061 12.119141 1.9902344 L 12.119141 16.660156 L 12.470703 16.660156 L 12.470703 30.599609 C 12.340687 30.709594 12.230403 30.840013 12.150391 31 L 12.119141 31 L 12.119141 31.060547 C 12.049144 31.220421 12.009766 31.390006 12.009766 31.580078 C 12.009766 32.280047 12.591017 32.859375 13.291016 32.859375 L 14.4375 32.859375 L 14.310547 33.113281 L 10.759766 33.113281 C 10.049766 33.113281 9.4765625 33.6865 9.4765625 34.396484 C 9.4765625 35.097511 10.049766 35.679688 10.759766 35.679688 L 13.070312 35.679688 L 12.949219 35.927734 L 13.908203 35.927734 L 14.027344 35.679688 L 16.78125 35.679688 L 17.876953 33.113281 L 15.267578 33.113281 L 15.396484 32.857422 L 14.439453 32.857422 L 15.679688 30.291016 L 13.880859 30.291016 L 13.880859 16.660156 L 15.359375 16.660156 L 15.359375 27.480469 C 14.649372 27.480469 14.080078 28.049781 14.080078 28.759766 C 14.080078 29.459772 14.649372 30.041016 15.359375 30.041016 L 15.800781 30.041016 L 15.679688 30.289062 L 16.640625 30.289062 L 16.759766 30.041016 L 19.189453 30.041016 L 20.291016 27.480469 L 18 27.480469 L 18.121094 27.220703 L 17.529297 27.220703 C 17.409297 27.220703 17.299682 27.200914 17.179688 27.169922 L 17.041016 27.480469 L 16.769531 27.480469 L 16.769531 26.970703 C 16.889531 27.060656 17.029682 27.129859 17.179688 27.169922 L 18.400391 24.660156 L 19.359375 24.660156 L 18.121094 27.220703 L 20.400391 27.220703 L 20.291016 27.480469 L 21.220703 27.480469 L 20.126953 30.044922 L 22.572266 30.044922 L 22.486328 30.291016 L 23.402344 30.291016 L 23.488281 30.044922 L 25.96875 30.044922 L 26.771484 27.478516 L 24.4375 27.478516 L 24.53125 27.220703 L 23.619141 27.220703 L 24.570312 24.660156 L 22.429688 24.660156 L 22.529297 24.410156 L 21.599609 24.410156 L 21.490234 24.660156 L 19.660156 24.660156 L 19.660156 24.199219 C 19.860169 24.329234 20.089843 24.410156 20.339844 24.410156 L 21.599609 24.410156 L 22.689453 21.839844 L 22.550781 21.839844 L 22.550781 16.660156 L 24.029297 16.660156 L 24.029297 21.839844 L 23.619141 21.839844 L 22.529297 24.410156 L 24.660156 24.410156 L 24.570312 24.660156 L 25.478516 24.660156 L 24.53125 27.220703 L 26.849609 27.220703 L 26.771484 27.478516 L 27.671875 27.478516 L 27.748047 27.220703 L 30.074219 27.220703 L 30.730469 24.660156 L 31.609375 24.660156 L 31.669922 24.410156 L 33.849609 24.410156 L 34.369141 21.839844 L 34.089844 21.839844 L 34.089844 16.660156 L 35.570312 16.660156 L 35.570312 21.839844 L 35.240234 21.839844 L 34.730469 24.410156 L 36.929688 24.410156 L 36.890625 24.654297 L 34.675781 24.654297 L 34.726562 24.40625 L 33.855469 24.40625 L 33.802734 24.654297 L 31.613281 24.654297 L 30.955078 27.220703 L 33.298828 27.220703 L 33.246094 27.478516 L 34.119141 27.478516 L 34.171875 27.220703 L 36.523438 27.220703 L 36.890625 24.660156 L 37.755859 24.660156 L 37.386719 27.220703 L 39.740234 27.220703 L 39.714844 27.478516 L 40.578125 27.478516 L 40.603516 27.220703 L 42.964844 27.220703 L 43.033203 24.660156 L 43.888672 24.660156 L 43.820312 27.220703 L 46.179688 27.220703 L 46.189453 27.478516 L 47.044922 27.478516 L 47.035156 27.220703 L 49.396484 27.220703 L 49.173828 24.660156 L 50.037109 24.660156 L 50.259766 27.220703 L 52.613281 27.220703 L 52.646484 27.478516 L 53.511719 27.478516 L 53.476562 27.220703 L 55.828125 27.220703 L 55.326172 24.660156 L 56.199219 24.660156 L 56.701172 27.220703 L 59.044922 27.220703 L 59.113281 27.478516 L 59.994141 27.478516 L 59.925781 27.220703 L 62.251953 27.220703 L 61.447266 24.654297 L 59.267578 24.654297 L 59.207031 24.40625 L 58.332031 24.40625 L 57.673828 21.839844 L 57.203125 21.839844 L 57.203125 16.660156 L 58.683594 16.660156 L 58.683594 21.839844 L 58.5625 21.839844 L 59.212891 24.410156 L 61.373047 24.410156 L 61.453125 24.660156 L 62.349609 24.660156 L 63.150391 27.220703 L 65.46875 27.220703 L 65.5625 27.478516 L 66.478516 27.478516 L 66.384766 27.220703 L 68.667969 27.220703 L 67.574219 24.660156 L 68.513672 24.660156 L 68.404297 24.410156 L 69.542969 24.410156 C 69.803 24.410156 70.022644 24.340947 70.222656 24.210938 L 70.222656 24.660156 L 68.513672 24.660156 L 69.603516 27.220703 L 71.882812 27.220703 L 72.003906 27.478516 L 69.710938 27.478516 L 69.599609 27.220703 L 68.667969 27.220703 L 68.779297 27.478516 L 66.478516 27.478516 L 67.427734 30.044922 L 69.873047 30.044922 L 69.984375 30.291016 L 70.917969 30.291016 L 70.806641 30.044922 L 73.244141 30.044922 L 72.003906 27.480469 L 72.970703 27.480469 L 74.210938 30.039062 L 73.244141 30.039062 L 73.373047 30.291016 L 70.923828 30.291016 L 72.011719 32.857422 L 71.070312 32.857422 L 71.181641 33.113281 L 68.556641 33.113281 L 69.505859 35.679688 L 72.277344 35.679688 L 72.388672 35.929688 L 73.320312 35.929688 L 73.21875 35.679688 L 75.972656 35.679688 L 74.732422 33.113281 L 72.123047 33.113281 L 72.013672 32.859375 L 74.613281 32.859375 L 74.734375 33.109375 L 75.693359 33.109375 L 75.574219 32.859375 L 76.59375 32.859375 C 77.303772 32.859375 77.873047 32.280084 77.873047 31.580078 C 77.873047 31.180091 77.694163 30.829594 77.414062 30.599609 L 77.414062 16.660156 L 78.230469 16.660156 L 78.230469 1.9902344 C 78.230469 0.89024061 77.340228 -1.7763568e-15 76.240234 0 L 14.109375 0 z M 73.320312 35.929688 L 74.416016 38.494141 L 77.333984 38.494141 L 77.794922 39.453125 L 78.751953 39.453125 L 79.992188 42.019531 L 83.515625 42.019531 C 84.225609 42.019531 84.798828 41.446312 84.798828 40.736328 C 84.798828 40.026306 84.225609 39.453125 83.515625 39.453125 L 78.753906 39.453125 L 78.291016 38.494141 L 81.404297 38.494141 C 82.105286 38.494141 82.6875 37.922913 82.6875 37.212891 C 82.6875 36.502906 82.105286 35.929688 81.404297 35.929688 L 77.050781 35.929688 L 76.929688 35.681641 L 75.972656 35.681641 L 76.091797 35.929688 L 73.320312 35.929688 z M 79.992188 42.019531 L 79.033203 42.019531 L 89.238281 63.119141 L 90 62.71875 L 79.992188 42.019531 z M 79.033203 42.019531 L 77.794922 39.453125 L 74.826172 39.453125 L 74.416016 38.494141 L 73.482422 38.494141 L 73.884766 39.453125 L 70.900391 39.453125 L 71.849609 42.019531 L 74.980469 42.019531 L 83.978516 63.103516 L 84.765625 62.744141 L 75.921875 42.019531 L 79.033203 42.019531 z M 71.849609 42.019531 L 70.933594 42.019531 L 78.726562 63.076172 L 79.521484 62.761719 L 71.849609 42.019531 z M 70.933594 42.019531 L 69.992188 39.453125 L 66.974609 39.453125 L 66.675781 38.494141 L 65.775391 38.494141 L 66.076172 39.453125 L 63.056641 39.453125 L 63.714844 42.019531 L 66.880859 42.019531 L 73.466797 63.060547 L 74.279297 62.787109 L 67.777344 42.019531 L 70.933594 42.019531 z M 63.714844 42.019531 L 62.833984 42.019531 L 68.205078 63.035156 L 69.035156 62.804688 L 63.714844 42.019531 z M 62.833984 42.019531 L 62.175781 39.453125 L 59.138672 39.453125 L 58.951172 38.494141 L 58.078125 38.494141 L 58.265625 39.453125 L 55.212891 39.453125 L 55.580078 42.019531 L 58.779297 42.019531 L 62.953125 63.009766 L 63.792969 62.828125 L 59.652344 42.019531 L 62.833984 42.019531 z M 55.580078 42.019531 L 54.716797 42.019531 L 57.701172 62.982422 L 58.548828 62.855469 L 55.580078 42.019531 z M 54.716797 42.019531 L 54.349609 39.453125 L 51.304688 39.453125 L 51.21875 38.494141 L 50.363281 38.494141 L 50.439453 39.453125 L 47.386719 39.453125 L 47.462891 42.019531 L 50.662109 42.019531 L 52.449219 62.957031 L 53.296875 62.880859 L 51.517578 42.019531 L 54.716797 42.019531 z M 47.462891 42.019531 L 46.607422 42.019531 L 47.197266 62.931641 L 48.054688 62.90625 L 47.462891 42.019531 z M 46.607422 42.019531 L 46.53125 39.453125 L 43.46875 39.453125 L 43.494141 38.494141 L 42.638672 38.494141 L 42.613281 39.453125 L 39.560547 39.453125 L 39.337891 42.019531 L 42.537109 42.019531 L 41.945312 62.90625 L 42.802734 62.931641 L 43.392578 42.019531 L 46.607422 42.019531 z M 39.337891 42.019531 L 38.482422 42.019531 L 36.703125 62.880859 L 37.550781 62.957031 L 39.337891 42.019531 z M 38.482422 42.019531 L 38.695312 39.453125 L 35.650391 39.453125 L 35.787109 38.494141 L 34.914062 38.494141 L 34.787109 39.453125 L 31.734375 39.453125 L 31.220703 42.019531 L 34.419922 42.019531 L 31.451172 62.855469 L 32.298828 62.982422 L 35.283203 42.019531 L 38.482422 42.019531 z M 31.220703 42.019531 L 30.347656 42.019531 L 26.207031 62.828125 L 27.046875 63.009766 L 31.220703 42.019531 z M 30.347656 42.019531 L 30.861328 39.453125 L 27.824219 39.453125 L 28.072266 38.494141 L 27.183594 38.494141 L 26.943359 39.453125 L 23.923828 39.453125 L 23.119141 42.019531 L 26.285156 42.019531 L 20.964844 62.804688 L 21.794922 63.035156 L 27.166016 42.019531 L 30.347656 42.019531 z M 23.119141 42.019531 L 22.222656 42.019531 L 15.720703 62.787109 L 16.533203 63.060547 L 23.119141 42.019531 z M 22.222656 42.019531 L 23.025391 39.453125 L 20.007812 39.453125 L 20.365234 38.494141 L 19.451172 38.494141 L 19.099609 39.453125 L 16.115234 39.453125 L 15.019531 42.019531 L 18.150391 42.019531 L 10.478516 62.761719 L 11.273438 63.076172 L 19.066406 42.019531 L 22.222656 42.019531 z M 15.019531 42.019531 L 14.078125 42.019531 L 5.234375 62.744141 L 6.0214844 63.103516 L 15.019531 42.019531 z M 16.115234 39.453125 L 16.517578 38.494141 L 19.451172 38.494141 L 20.400391 35.929688 L 17.611328 35.929688 L 17.722656 35.679688 L 16.78125 35.679688 L 16.679688 35.929688 L 13.908203 35.929688 L 12.667969 38.494141 L 15.583984 38.494141 L 15.173828 39.451172 L 12.205078 39.451172 L 12.667969 38.494141 L 11.710938 38.494141 L 11.248047 39.453125 L 6.3632812 39.453125 C 5.6622815 39.453125 5.0800781 40.026306 5.0800781 40.736328 C 5.0800781 41.446312 5.6622815 42.019531 6.3632812 42.019531 L 10.007812 42.019531 L 0 62.71875 L 0.76171875 63.119141 L 10.964844 42.017578 L 14.078125 42.017578 L 15.173828 39.453125 L 16.115234 39.453125 z M 11.710938 38.494141 L 12.949219 35.929688 L 8.484375 35.929688 C 7.7743756 35.929688 7.2011719 36.502906 7.2011719 37.212891 C 7.2011719 37.922913 7.7743756 38.494141 8.484375 38.494141 L 11.710938 38.494141 z M 17.722656 35.679688 L 20.494141 35.679688 L 20.400391 35.929688 L 21.314453 35.929688 L 21.408203 35.679688 L 24.205078 35.679688 L 25.001953 33.113281 L 22.359375 33.113281 L 22.453125 32.857422 L 21.537109 32.857422 L 21.443359 33.113281 L 18.818359 33.113281 L 17.722656 35.679688 z M 18.818359 33.113281 L 18.929688 32.857422 L 21.537109 32.857422 L 22.486328 30.291016 L 20.015625 30.291016 L 20.126953 30.044922 L 19.193359 30.044922 L 19.082031 30.291016 L 16.636719 30.291016 L 15.396484 32.857422 L 17.988281 32.857422 L 17.876953 33.113281 L 18.818359 33.113281 z M 22.453125 32.857422 L 25.087891 32.857422 L 25.001953 33.113281 L 25.900391 33.113281 L 25.986328 32.857422 L 28.628906 32.857422 L 29.287109 30.291016 L 26.789062 30.291016 L 26.867188 30.044922 L 25.96875 30.044922 L 25.890625 30.291016 L 23.402344 30.291016 L 22.453125 32.857422 z M 26.867188 30.044922 L 29.347656 30.044922 L 29.287109 30.291016 L 30.167969 30.291016 L 30.228516 30.044922 L 32.734375 30.044922 L 33.246094 27.478516 L 30.886719 27.478516 L 30.955078 27.220703 L 30.074219 27.220703 L 30.005859 27.478516 L 27.671875 27.478516 L 26.867188 30.044922 z M 32.734375 30.044922 L 32.683594 30.291016 L 30.167969 30.291016 L 29.509766 32.857422 L 32.169922 32.857422 L 32.117188 33.113281 L 32.990234 33.113281 L 33.042969 32.857422 L 35.71875 32.857422 L 36.087891 30.291016 L 33.554688 30.291016 L 33.607422 30.044922 L 32.734375 30.044922 z M 33.607422 30.044922 L 36.121094 30.044922 L 36.087891 30.291016 L 36.951172 30.291016 L 36.984375 30.044922 L 39.5 30.044922 L 39.714844 27.478516 L 37.353516 27.478516 L 37.386719 27.220703 L 36.523438 27.220703 L 36.488281 27.478516 L 34.119141 27.478516 L 33.607422 30.044922 z M 39.5 30.044922 L 39.474609 30.291016 L 36.951172 30.291016 L 36.582031 32.857422 L 39.261719 32.857422 L 39.234375 33.113281 L 40.099609 33.113281 L 40.125 32.857422 L 42.802734 32.857422 L 42.869141 30.291016 L 40.337891 30.291016 L 40.363281 30.044922 L 39.5 30.044922 z M 40.363281 30.044922 L 42.878906 30.044922 L 42.869141 30.291016 L 43.726562 30.291016 L 43.734375 30.044922 L 46.265625 30.044922 L 46.189453 27.478516 L 43.810547 27.478516 L 43.820312 27.220703 L 42.964844 27.220703 L 42.955078 27.478516 L 40.578125 27.478516 L 40.363281 30.044922 z M 46.265625 30.044922 L 46.273438 30.291016 L 43.726562 30.291016 L 43.65625 32.857422 L 46.34375 32.857422 L 46.351562 33.113281 L 47.207031 33.113281 L 47.197266 32.857422 L 49.875 32.857422 L 49.662109 30.291016 L 47.130859 30.291016 L 47.121094 30.044922 L 46.265625 30.044922 z M 47.121094 30.044922 L 49.636719 30.044922 L 49.662109 30.291016 L 50.525391 30.291016 L 50.5 30.044922 L 53.015625 30.044922 L 52.646484 27.478516 L 50.285156 27.478516 L 50.259766 27.220703 L 49.396484 27.220703 L 49.421875 27.478516 L 47.044922 27.478516 L 47.121094 30.044922 z M 53.015625 30.044922 L 53.048828 30.291016 L 50.525391 30.291016 L 50.738281 32.857422 L 53.417969 32.857422 L 53.451172 33.113281 L 54.314453 33.113281 L 54.28125 32.857422 L 56.957031 32.857422 L 56.445312 30.291016 L 53.912109 30.291016 L 53.878906 30.044922 L 53.015625 30.044922 z M 53.878906 30.044922 L 56.392578 30.044922 L 56.445312 30.291016 L 57.316406 30.291016 L 57.265625 30.044922 L 59.771484 30.044922 L 59.113281 27.478516 L 56.753906 27.478516 L 56.701172 27.220703 L 55.828125 27.220703 L 55.880859 27.478516 L 53.511719 27.478516 L 53.878906 30.044922 z M 59.771484 30.044922 L 59.832031 30.291016 L 57.316406 30.291016 L 57.830078 32.857422 L 60.490234 32.857422 L 60.550781 33.113281 L 61.439453 33.113281 L 61.371094 32.857422 L 64.013672 32.857422 L 63.210938 30.291016 L 60.712891 30.291016 L 60.652344 30.044922 L 59.771484 30.044922 z M 60.652344 30.044922 L 63.132812 30.044922 L 63.210938 30.291016 L 64.109375 30.291016 L 64.03125 30.044922 L 66.511719 30.044922 L 65.5625 27.478516 L 63.228516 27.478516 L 63.150391 27.220703 L 62.251953 27.220703 L 62.328125 27.478516 L 59.994141 27.478516 L 60.652344 30.044922 z M 66.511719 30.044922 L 66.597656 30.291016 L 64.109375 30.291016 L 64.912109 32.857422 L 67.546875 32.857422 L 67.640625 33.113281 L 68.556641 33.113281 L 68.462891 32.857422 L 71.070312 32.857422 L 69.984375 30.291016 L 67.513672 30.291016 L 67.427734 30.044922 L 66.511719 30.044922 z M 67.640625 33.113281 L 64.998047 33.113281 L 64.912109 32.857422 L 64.013672 32.857422 L 64.099609 33.113281 L 61.439453 33.113281 L 62.089844 35.679688 L 64.894531 35.679688 L 64.972656 35.929688 L 65.871094 35.929688 L 65.794922 35.679688 L 68.591797 35.679688 L 67.640625 33.113281 z M 68.591797 35.679688 L 68.685547 35.929688 L 65.871094 35.929688 L 66.675781 38.494141 L 69.634766 38.494141 L 69.992188 39.453125 L 70.900391 39.453125 L 70.548828 38.494141 L 73.482422 38.494141 L 72.388672 35.929688 L 69.599609 35.929688 L 69.505859 35.679688 L 68.591797 35.679688 z M 64.972656 35.929688 L 62.158203 35.929688 L 62.089844 35.679688 L 61.208984 35.679688 L 61.277344 35.929688 L 58.4375 35.929688 L 58.951172 38.494141 L 61.927734 38.494141 L 62.175781 39.453125 L 63.056641 39.453125 L 62.816406 38.494141 L 65.775391 38.494141 L 64.972656 35.929688 z M 58.4375 35.929688 L 58.386719 35.679688 L 61.208984 35.679688 L 60.550781 33.113281 L 57.882812 33.113281 L 57.830078 32.857422 L 56.957031 32.857422 L 57.009766 33.113281 L 54.314453 33.113281 L 54.683594 35.679688 L 57.513672 35.679688 L 57.564453 35.929688 L 58.4375 35.929688 z M 57.564453 35.929688 L 54.716797 35.929688 L 54.683594 35.679688 L 53.818359 35.679688 L 53.853516 35.929688 L 51.005859 35.929688 L 51.21875 38.494141 L 54.212891 38.494141 L 54.349609 39.453125 L 55.212891 39.453125 L 55.085938 38.494141 L 58.078125 38.494141 L 57.564453 35.929688 z M 51.005859 35.929688 L 50.978516 35.679688 L 53.818359 35.679688 L 53.451172 33.113281 L 50.765625 33.113281 L 50.738281 32.857422 L 49.875 32.857422 L 49.900391 33.113281 L 47.207031 33.113281 L 47.275391 35.679688 L 50.123047 35.679688 L 50.140625 35.929688 L 51.005859 35.929688 z M 50.140625 35.929688 L 47.283203 35.929688 L 47.275391 35.679688 L 46.419922 35.679688 L 46.427734 35.929688 L 43.572266 35.929688 L 43.494141 38.494141 L 46.505859 38.494141 L 46.53125 39.453125 L 47.386719 39.453125 L 47.361328 38.494141 L 50.363281 38.494141 L 50.140625 35.929688 z M 43.572266 35.929688 L 43.580078 35.679688 L 46.419922 35.679688 L 46.351562 33.113281 L 43.648438 33.113281 L 43.65625 32.857422 L 42.802734 32.857422 L 42.792969 33.113281 L 40.099609 33.113281 L 39.876953 35.679688 L 42.724609 35.679688 L 42.716797 35.929688 L 43.572266 35.929688 z M 42.716797 35.929688 L 39.859375 35.929688 L 39.876953 35.679688 L 39.021484 35.679688 L 38.994141 35.929688 L 36.146484 35.929688 L 35.787109 38.494141 L 38.78125 38.494141 L 38.695312 39.453125 L 39.560547 39.453125 L 39.636719 38.494141 L 42.638672 38.494141 L 42.716797 35.929688 z M 36.146484 35.929688 L 36.181641 35.679688 L 39.021484 35.679688 L 39.234375 33.113281 L 36.548828 33.113281 L 36.582031 32.857422 L 35.71875 32.857422 L 35.685547 33.113281 L 32.990234 33.113281 L 32.486328 35.679688 L 35.316406 35.679688 L 35.283203 35.929688 L 36.146484 35.929688 z M 35.283203 35.929688 L 32.435547 35.929688 L 32.486328 35.679688 L 31.613281 35.679688 L 31.5625 35.929688 L 28.722656 35.929688 L 28.072266 38.494141 L 31.048828 38.494141 L 30.861328 39.453125 L 31.734375 39.453125 L 31.921875 38.494141 L 34.914062 38.494141 L 35.283203 35.929688 z M 28.722656 35.929688 L 28.791016 35.679688 L 31.613281 35.679688 L 32.117188 33.113281 L 29.449219 33.113281 L 29.509766 32.857422 L 28.628906 32.857422 L 28.560547 33.113281 L 25.900391 33.113281 L 25.105469 35.679688 L 27.910156 35.679688 L 27.841797 35.929688 L 28.722656 35.929688 z M 27.841797 35.929688 L 25.027344 35.929688 L 25.105469 35.679688 L 24.205078 35.679688 L 24.128906 35.929688 L 21.314453 35.929688 L 20.365234 38.494141 L 23.324219 38.494141 L 23.025391 39.453125 L 23.923828 39.453125 L 24.224609 38.494141 L 27.183594 38.494141 L 27.841797 35.929688 z M 14.109375 0.69921875 L 76.240234 0.69921875 C 76.950219 0.69921875 77.529297 1.2802501 77.529297 1.9902344 L 77.529297 15.960938 L 12.830078 15.960938 L 12.830078 1.9902344 C 12.830078 1.2802501 13.399376 0.69921875 14.109375 0.69921875 z M 16.769531 16.660156 L 18.25 16.660156 L 18.25 24.660156 L 17.529297 24.660156 C 17.239294 24.660156 16.979533 24.749904 16.769531 24.910156 L 16.769531 16.660156 z M 19.660156 16.660156 L 21.140625 16.660156 L 21.140625 21.839844 L 20.339844 21.839844 C 20.07985 21.839844 19.850157 21.910561 19.660156 22.050781 C 19.590159 22.090844 19.530684 22.139563 19.470703 22.189453 C 19.530722 22.129359 19.590159 22.079125 19.660156 22.039062 L 19.660156 16.660156 z M 25.429688 16.660156 L 26.910156 16.660156 L 26.910156 21.839844 L 25.429688 21.839844 L 25.429688 16.660156 z M 28.320312 16.660156 L 29.800781 16.660156 L 29.800781 21.839844 L 29.419922 21.839844 L 28.630859 24.410156 L 30.789062 24.410156 L 30.732422 24.654297 L 28.552734 24.654297 L 28.628906 24.40625 L 27.732422 24.40625 L 28.529297 21.839844 L 28.320312 21.839844 L 28.320312 16.660156 z M 31.210938 16.660156 L 32.679688 16.660156 L 32.679688 21.839844 L 31.210938 21.839844 L 31.210938 16.660156 z M 36.980469 16.660156 L 38.460938 16.660156 L 38.460938 21.839844 L 36.980469 21.839844 L 36.980469 16.660156 z M 39.869141 16.660156 L 41.349609 16.660156 L 41.349609 21.839844 L 41.060547 21.839844 L 40.839844 24.40625 L 39.980469 24.40625 L 40.199219 21.839844 L 39.869141 21.839844 L 39.869141 16.660156 z M 42.759766 16.660156 L 44.240234 16.660156 L 44.240234 21.839844 L 42.759766 21.839844 L 42.759766 16.660156 z M 45.650391 16.660156 L 47.130859 16.660156 L 47.130859 21.839844 L 46.890625 21.839844 L 46.960938 24.410156 L 49.160156 24.410156 L 49.171875 24.654297 L 46.966797 24.654297 L 46.958984 24.40625 L 46.103516 24.40625 L 46.111328 24.654297 L 43.888672 24.654297 L 43.900391 24.410156 L 46.099609 24.410156 L 46.03125 21.839844 L 45.650391 21.839844 L 45.650391 16.660156 z M 48.539062 16.660156 L 50.009766 16.660156 L 50.009766 21.839844 L 48.539062 21.839844 L 48.539062 16.660156 z M 51.423828 16.660156 L 52.902344 16.660156 L 52.902344 21.839844 L 52.722656 21.839844 L 53.072266 24.40625 L 52.212891 24.40625 L 51.84375 21.839844 L 51.423828 21.839844 L 51.423828 16.660156 z M 54.310547 16.660156 L 55.789062 16.660156 L 55.789062 21.839844 L 54.310547 21.839844 L 54.310547 16.660156 z M 60.080078 16.660156 L 61.560547 16.660156 L 61.560547 21.839844 L 60.080078 21.839844 L 60.080078 16.660156 z M 62.972656 16.660156 L 64.453125 16.660156 L 64.453125 21.839844 L 64.392578 21.839844 L 65.34375 24.410156 L 67.472656 24.410156 L 67.572266 24.654297 L 65.433594 24.654297 L 65.339844 24.40625 L 64.431641 24.40625 L 63.482422 21.839844 L 62.972656 21.839844 L 62.972656 16.660156 z M 65.859375 16.660156 L 67.330078 16.660156 L 67.330078 21.839844 L 65.859375 21.839844 L 65.859375 16.660156 z M 68.740234 16.660156 L 70.220703 16.660156 L 70.220703 22.039062 C 70.290624 22.079125 70.350062 22.139502 70.410156 22.199219 L 70.810547 23.009766 C 70.810547 23.040002 70.822266 23.069812 70.822266 23.089844 L 70.820312 23.169922 C 70.80898 23.259875 70.800462 23.3495 70.779297 23.439453 C 70.779297 23.458351 70.769278 23.479907 70.761719 23.509766 C 70.731483 23.579687 70.711938 23.660547 70.671875 23.730469 C 70.660536 23.749366 70.640686 23.769037 70.630859 23.789062 C 70.590796 23.849157 70.551782 23.899329 70.511719 23.949219 C 70.471656 23.989282 70.440454 24.030689 70.400391 24.060547 L 70.371094 24.089844 L 69.269531 21.839844 L 68.740234 21.839844 L 68.740234 16.660156 z M 71.630859 16.660156 L 73.109375 16.660156 L 73.109375 24.900391 C 72.899233 24.750343 72.6394 24.660156 72.359375 24.660156 L 71.630859 24.660156 L 71.630859 16.660156 z M 74.523438 16.660156 L 76.003906 16.660156 L 76.003906 30.291016 L 74.333984 30.291016 L 74.212891 30.039062 L 74.519531 30.039062 C 75.229553 30.039062 75.800781 29.459734 75.800781 28.759766 C 75.800781 28.051066 75.23161 27.482586 74.523438 27.480469 L 74.523438 16.660156 z M 25.570312 24.410156 L 27.728516 24.410156 L 27.652344 24.654297 L 25.482422 24.654297 L 25.570312 24.410156 z M 37.791016 24.410156 L 39.978516 24.410156 L 39.962891 24.654297 L 37.759766 24.654297 L 37.791016 24.410156 z M 40.84375 24.410156 L 43.041016 24.410156 L 43.029297 24.654297 L 40.826172 24.654297 L 40.84375 24.410156 z M 50.023438 24.410156 L 52.210938 24.410156 L 52.244141 24.654297 L 50.041016 24.654297 L 50.023438 24.410156 z M 53.074219 24.410156 L 55.273438 24.410156 L 55.320312 24.654297 L 53.109375 24.654297 L 53.074219 24.410156 z M 56.152344 24.410156 L 58.326172 24.410156 L 58.386719 24.654297 L 56.201172 24.654297 L 56.152344 24.410156 z M 62.273438 24.410156 L 64.427734 24.410156 L 64.519531 24.654297 L 62.351562 24.654297 L 62.273438 24.410156 z M 73.113281 26.980469 L 73.113281 27.480469 L 72.972656 27.480469 L 72.814453 27.140625 C 72.924437 27.090735 73.023328 27.040185 73.113281 26.980469 z M 21.330078 27.220703 L 23.615234 27.220703 L 23.521484 27.478516 L 21.220703 27.478516 L 21.330078 27.220703 z M 75.689453 33.113281 L 76.929688 35.679688 L 79.119141 35.679688 C 79.829125 35.679688 80.402344 35.097511 80.402344 34.396484 C 80.402344 33.6865 79.829125 33.113281 79.119141 33.113281 L 75.689453 33.113281 z "
       transform="matrix(0.26458333,0,0,0.26458333,93.927084,114.02475)"
       id="path3891" />
  </g>
</svg>
